<svg width="2103" height="615" viewBox="0 0 2103 615" fill="none" xmlns="http://www.w3.org/2000/svg">
<path fill-rule="evenodd" clip-rule="evenodd" d="M703.262 547.312V86.0092H829.748V547.312H703.262ZM896.711 547.312V86.0092H1253.85V175.294H1030.64V272.018H1231.53V361.303H1030.64V458.027H1253.85V547.312H896.711ZM1320.81 547.312V86.0092H1677.95V175.294H1454.74V272.018H1663.07V361.303H1454.74V458.027H1677.95V547.312H1320.81ZM1752.35 547.312V86.0092H2102.05V175.294H1878.84V272.018H2087.17V361.303H1878.84V458.027H2102.05V547.312H1752.35ZM346.124 41.367C368.445 63.6881 390.766 93.4495 405.647 115.771L457.729 167.853C509.812 212.495 554.454 249.697 606.537 286.899C613.977 294.339 621.418 301.78 621.418 309.22C621.418 324.101 599.096 331.541 591.656 338.982C487.491 413.385 398.207 502.67 323.803 606.835L316.362 614.275H301.482C294.041 606.835 294.041 599.394 286.601 599.394C271.72 569.633 249.399 547.312 234.518 524.991C219.638 517.55 212.197 502.67 204.757 495.229C145.234 428.266 78.2707 368.743 11.3074 324.101C3.86706 316.661 -3.57331 309.22 3.86706 301.78C3.86706 294.339 11.3074 286.899 18.7478 286.899C108.032 227.376 189.876 145.532 256.84 63.6881L294.041 4.16514C301.482 4.16514 308.922 -3.27523 316.362 4.16514C316.362 4.16514 323.803 4.16514 323.803 11.6055L346.124 41.367ZM286.601 86.0092C271.72 100.89 249.399 115.771 234.518 130.651C227.078 130.651 227.078 138.092 227.078 138.092C182.436 175.294 137.794 219.936 108.032 264.578C93.1515 279.459 85.7111 286.899 78.2707 301.78C78.2707 316.661 78.2707 324.101 85.7111 324.101C115.473 368.743 152.674 413.385 197.317 450.587C227.078 480.349 264.28 517.55 301.482 532.431C316.362 539.871 331.243 532.431 338.684 524.991C390.766 487.789 442.849 443.147 487.491 391.064C502.372 368.743 524.693 346.422 539.573 316.661C539.573 301.78 539.573 294.339 532.133 286.899C494.931 234.816 457.729 190.174 405.647 145.532C390.766 130.651 368.445 115.771 353.564 100.89C338.684 86.0092 308.922 71.1284 286.601 86.0092Z" fill="white"/>
<path fill-rule="evenodd" clip-rule="evenodd" d="M353.564 115.771C413.087 167.853 472.61 227.376 517.252 294.339C524.693 301.78 532.133 316.661 524.693 324.101C509.812 338.982 494.931 361.303 480.05 376.183C442.849 420.826 405.647 458.028 361.005 495.229C338.684 502.67 323.803 532.431 294.041 517.55C234.518 472.908 174.995 413.385 122.913 353.862C115.473 346.422 100.592 331.541 100.592 316.661C93.1514 301.78 108.032 286.899 115.473 272.018C167.555 205.055 234.518 145.532 294.041 100.89C316.362 86.0092 338.684 108.33 353.564 115.771ZM308.922 138.092L301.482 160.413L279.161 242.257H301.482L294.041 338.982H323.803V242.257H346.124C331.243 205.055 323.803 175.294 308.922 138.092ZM212.197 272.018C197.317 279.459 174.995 286.899 174.995 309.22C182.436 324.101 189.876 331.541 204.757 338.982C256.839 361.303 331.243 361.303 398.206 346.422C405.647 338.982 427.968 331.541 435.408 309.22C435.408 294.339 413.087 286.899 405.647 279.459H420.528C398.206 272.018 375.885 264.578 361.005 264.578C361.005 272.018 368.445 279.459 368.445 286.899H383.326C398.206 286.899 413.087 294.339 413.087 309.22C413.087 316.661 398.206 324.101 390.766 331.541C346.124 346.422 301.482 346.422 249.399 338.982C241.959 331.541 219.638 324.101 219.638 309.22C227.078 286.899 249.399 286.899 271.72 279.459C264.28 272.018 249.399 264.578 241.959 257.138C234.518 264.578 219.638 264.578 212.197 272.018ZM294.041 361.303C294.041 391.064 294.041 428.266 286.601 458.028H331.243L323.803 368.743V361.303H294.041ZM435.408 562.193V554.752H450.289C450.289 562.193 450.289 562.193 442.849 562.193H435.408ZM435.408 569.633H442.849L450.289 584.514H457.729L450.289 569.633C450.289 569.633 457.729 562.193 457.729 554.752C457.729 547.312 450.289 547.312 442.849 547.312H427.968V584.514H435.408V569.633ZM472.61 562.193C472.61 547.312 457.729 532.431 442.849 532.431C427.968 532.431 413.087 547.312 413.087 562.193C413.087 584.514 427.968 599.394 442.849 599.394C457.729 599.394 472.61 584.514 472.61 562.193ZM465.17 562.193C465.17 577.073 457.729 591.954 442.849 591.954C427.968 591.954 420.528 577.073 420.528 562.193C420.528 547.312 427.968 539.872 442.849 539.872C457.729 539.872 465.17 547.312 465.17 562.193Z" fill="white"/>
</svg>
