<?xml version="1.0" encoding="UTF-8" standalone="no" ?>
<!DOCTYPE svg PUBLIC "-//W3C//DTD SVG 1.1//EN" "http://www.w3.org/Graphics/SVG/1.1/DTD/svg11.dtd">
<svg xmlns="http://www.w3.org/2000/svg" xmlns:xlink="http://www.w3.org/1999/xlink" version="1.1" width="800" height="500" viewBox="0 0 800 500" xml:space="preserve">
<desc>Created with Fabric.js 5.2.4</desc>
<defs>
</defs>
<rect x="0" y="0" width="100%" height="100%" fill="transparent"></rect>
<g transform="matrix(Infinity NaN NaN Infinity 0 0)" id="fcb06fd7-4ec9-4401-8824-5c1daab61b3f"  >
</g>
<g transform="matrix(1 0 0 1 400 250)" id="e80b64f1-e8b7-4817-8b08-e3df68643a5f"  >
<rect style="stroke: none; stroke-width: 1; stroke-dasharray: none; stroke-linecap: butt; stroke-dashoffset: 0; stroke-linejoin: miter; stroke-miterlimit: 4; fill: rgb(255,255,255); fill-rule: nonzero; opacity: 1; visibility: hidden;" vector-effect="non-scaling-stroke"  x="-400" y="-250" rx="0" ry="0" width="800" height="500" />
</g>
<g transform="matrix(3.25 0 0 3.25 400 250)"  >
<g style="" vector-effect="non-scaling-stroke"   >
		<g transform="matrix(3.78 0 0 3.78 -107.25 23.14)"  >
<path style="stroke: none; stroke-width: 1; stroke-dasharray: none; stroke-linecap: butt; stroke-dashoffset: 0; stroke-linejoin: miter; stroke-miterlimit: 4; fill: rgb(255,255,255); fill-rule: nonzero; opacity: 1;" vector-effect="non-scaling-stroke"  transform=" translate(-2.42, -23.46)" d="M 4.22 25.61 L 3.57 25.62 L 3.53 25.580000000000002 C 3.51 25.310000000000002 3.51 25.110000000000003 3.48 24.830000000000002 L 3.44 24.3 L 1.93 24.3 L 1.69 24.75 L 1.31 25.51 L 1.29 25.57 L 1.24 25.6 L 0.61 25.610000000000003 L 0.58 25.550000000000004 C 0.69 25.350000000000005 2.33 22.450000000000003 2.9 21.350000000000005 L 2.9499999999999997 21.320000000000004 L 3.8 21.300000000000004 L 3.8299999999999996 21.330000000000005 C 3.8599999999999994 21.840000000000007 4.08 24.140000000000004 4.25 25.570000000000007 z M 3.26 21.74 L 2.18 23.8 L 2.5900000000000003 23.810000000000002 L 3.4200000000000004 23.810000000000002 z M 3.26 21.74" stroke-linecap="round" />
</g>
		<g transform="matrix(3.78 0 0 3.78 -91.88 22.24)"  >
<path style="stroke: none; stroke-width: 1; stroke-dasharray: none; stroke-linecap: butt; stroke-dashoffset: 0; stroke-linejoin: miter; stroke-miterlimit: 4; fill: rgb(255,255,255); fill-rule: nonzero; opacity: 1;" vector-effect="non-scaling-stroke"  transform=" translate(-6.48, -23.22)" d="M 7.2 25.6 C 7 25.6 6.8500000000000005 25.6 6.640000000000001 25.62 L 6.61 25.57 L 6.66 25.34 C 6.46 25.48 6.21 25.65 5.79 25.65 C 5.0600000000000005 25.65 4.640000000000001 25.11 4.640000000000001 24.439999999999998 C 4.640000000000001 24.11 4.760000000000001 23.669999999999998 4.960000000000001 23.339999999999996 C 5.470000000000001 22.529999999999998 6.270000000000001 22.429999999999996 6.880000000000001 22.429999999999996 L 7.300000000000001 22.439999999999998 L 7.6000000000000005 20.939999999999998 L 7.640000000000001 20.9 L 8.290000000000001 20.79 L 8.32 20.83 C 7.921414642929785 22.396890238861396 7.564621538405653 23.974115831757853 7.250000000000007 25.56000000000003 z M 7.2 22.9 C 7.107580696045064 22.883901837695355 7.013769100587526 22.877201009448388 6.92 22.88 C 6.09 22.88 5.6899999999999995 23.24 5.47 23.7 C 5.43 23.8 5.319999999999999 24.06 5.319999999999999 24.349999999999998 C 5.319999999999999 24.799999999999997 5.569999999999999 25.15 6.069999999999999 25.15 C 6.22 25.15 6.6 25.049999999999997 6.76 24.849999999999998 z M 7.2 22.9" stroke-linecap="round" />
</g>
		<g transform="matrix(3.78 0 0 3.78 -79.48 25.32)"  >
<path style="stroke: none; stroke-width: 1; stroke-dasharray: none; stroke-linecap: butt; stroke-dashoffset: 0; stroke-linejoin: miter; stroke-miterlimit: 4; fill: rgb(255,255,255); fill-rule: nonzero; opacity: 1;" vector-effect="non-scaling-stroke"  transform=" translate(-9.77, -24.04)" d="M 9.43 25.6 L 8.73 25.630000000000003 L 8.67 25.590000000000003 C 8.62 25.030000000000005 8.39 23.17 8.32 22.520000000000003 L 8.35 22.470000000000002 C 8.58 22.470000000000002 8.75 22.470000000000002 8.969999999999999 22.44 L 9.009999999999998 22.48 L 9.079999999999998 23.41 L 9.229999999999999 25.11 L 10.559999999999999 22.49 L 10.62 22.459999999999997 L 11.18 22.459999999999997 L 11.209999999999999 22.499999999999996 L 10.61 23.529999999999998 L 10.1 24.45 L 9.48 25.57 z M 9.43 25.6" stroke-linecap="round" />
</g>
		<g transform="matrix(3.78 0 0 3.78 -68.61 25.36)"  >
<path style="stroke: none; stroke-width: 1; stroke-dasharray: none; stroke-linecap: butt; stroke-dashoffset: 0; stroke-linejoin: miter; stroke-miterlimit: 4; fill: rgb(255,255,255); fill-rule: nonzero; opacity: 1;" vector-effect="non-scaling-stroke"  transform=" translate(-12.64, -24.05)" d="M 13.58 25.61 L 13.42 25.61 L 13.01 25.62 L 12.98 25.580000000000002 L 13.02 25.340000000000003 C 12.74 25.570000000000004 12.43 25.640000000000004 12.139999999999999 25.640000000000004 C 11.419999999999998 25.640000000000004 11.009999999999998 25.110000000000003 11.009999999999998 24.460000000000004 C 11.009999999999998 24.020000000000003 11.209999999999997 23.600000000000005 11.299999999999997 23.440000000000005 C 11.799999999999997 22.550000000000004 12.699999999999998 22.450000000000006 13.339999999999996 22.450000000000006 L 14.239999999999997 22.460000000000008 L 14.269999999999996 22.500000000000007 C 13.769999999999996 24.650000000000006 13.699999999999996 24.99000000000001 13.619999999999996 25.570000000000007 z M 12.41 25.169999999999998 C 12.6 25.169999999999998 12.9 25.09 13.11 24.869999999999997 C 13.26 24.249999999999996 13.379999999999999 23.609999999999996 13.549999999999999 22.919999999999998 L 13.29 22.9 C 12.709999999999999 22.9 12.12 23.09 11.809999999999999 23.799999999999997 C 11.725778454331019 23.995937061699152 11.6815789591641 24.206734654033692 11.679999999999998 24.419999999999998 C 11.679999999999998 24.849999999999998 11.939999999999998 25.169999999999998 12.409999999999998 25.169999999999998" stroke-linecap="round" />
</g>
		<g transform="matrix(3.78 0 0 3.78 -55.95 25.2)"  >
<path style="stroke: none; stroke-width: 1; stroke-dasharray: none; stroke-linecap: butt; stroke-dashoffset: 0; stroke-linejoin: miter; stroke-miterlimit: 4; fill: rgb(255,255,255); fill-rule: nonzero; opacity: 1;" vector-effect="non-scaling-stroke"  transform=" translate(-15.99, -24)" d="M 17.08 25.61 C 16.849999999999998 25.61 16.7 25.61 16.47 25.63 L 16.439999999999998 25.58 L 16.7 24.509999999999998 L 16.84 23.81 C 16.86 23.72 16.91 23.529999999999998 16.91 23.369999999999997 C 16.91 22.919999999999998 16.51 22.9 16.39 22.9 C 16.02 22.9 15.73 23.119999999999997 15.59 23.22 C 15.42 24 15.25 24.79 15.1 25.57 L 15.06 25.61 C 14.83 25.61 14.67 25.61 14.440000000000001 25.63 L 14.410000000000002 25.58 C 14.610000000000001 24.779999999999998 14.990000000000002 23.099999999999998 15.050000000000002 22.549999999999997 L 15.090000000000002 22.509999999999998 L 15.730000000000002 22.409999999999997 L 15.760000000000002 22.439999999999998 L 15.680000000000001 22.749999999999996 C 16.12 22.409999999999997 16.560000000000002 22.379999999999995 16.700000000000003 22.379999999999995 C 16.880000000000003 22.379999999999995 17.570000000000004 22.409999999999997 17.570000000000004 23.189999999999994 C 17.570000000000004 23.389999999999993 17.500000000000004 23.789999999999996 17.370000000000005 24.359999999999992 L 17.280000000000005 24.789999999999992 C 17.220000000000006 25.089999999999993 17.170000000000005 25.289999999999992 17.130000000000006 25.569999999999993 z M 17.08 25.61" stroke-linecap="round" />
</g>
		<g transform="matrix(3.78 0 0 3.78 -42.95 25.32)"  >
<path style="stroke: none; stroke-width: 1; stroke-dasharray: none; stroke-linecap: butt; stroke-dashoffset: 0; stroke-linejoin: miter; stroke-miterlimit: 4; fill: rgb(255,255,255); fill-rule: nonzero; opacity: 1;" vector-effect="non-scaling-stroke"  transform=" translate(-19.43, -24.04)" d="M 20.17 25.51 C 19.96 25.630000000000003 19.6 25.680000000000003 19.39 25.680000000000003 C 18.61 25.680000000000003 18.07 25.090000000000003 18.07 24.320000000000004 C 18.07 23.820000000000004 18.28 23.040000000000003 18.95 22.630000000000003 C 19.3 22.42 19.669999999999998 22.390000000000004 19.84 22.390000000000004 C 20.26 22.390000000000004 20.59 22.490000000000006 20.78 22.630000000000003 L 20.790000000000003 22.67 L 20.640000000000004 23.150000000000002 L 20.580000000000005 23.17 C 20.480000000000004 23.01 20.220000000000006 22.87 19.900000000000006 22.87 C 19.140000000000004 22.87 18.730000000000004 23.67 18.730000000000004 24.27 C 18.730000000000004 24.98 19.280000000000005 25.19 19.570000000000004 25.19 C 19.670000000000005 25.19 19.990000000000006 25.18 20.310000000000002 24.900000000000002 L 20.360000000000003 24.92 C 20.290000000000003 25.12 20.26 25.26 20.210000000000004 25.470000000000002 z M 20.17 25.51" stroke-linecap="round" />
</g>
		<g transform="matrix(3.78 0 0 3.78 -35.11 22.51)"  >
<path style="stroke: none; stroke-width: 1; stroke-dasharray: none; stroke-linecap: butt; stroke-dashoffset: 0; stroke-linejoin: miter; stroke-miterlimit: 4; fill: rgb(255,255,255); fill-rule: nonzero; opacity: 1;" vector-effect="non-scaling-stroke"  transform=" translate(-21.51, -23.29)" d="M 21.32 25.6 L 20.67 25.62 L 20.64 25.580000000000002 C 20.84 24.880000000000003 21.27 22.880000000000003 21.3 22.55 L 21.34 22.51 C 21.59 22.48 21.76 22.46 22 22.41 L 22.03 22.46 C 22 22.45 21.5 24.76 21.36 25.57 z M 22.18 21.6 L 21.55 21.700000000000003 L 21.51 21.640000000000004 L 21.64 21.090000000000003 L 21.69 21.040000000000003 L 22.32 20.960000000000004 L 22.37 21.000000000000004 L 22.23 21.560000000000002 z M 22.18 21.6" stroke-linecap="round" />
</g>
		<g transform="matrix(3.78 0 0 3.78 -26.7 25.2)"  >
<path style="stroke: none; stroke-width: 1; stroke-dasharray: none; stroke-linecap: butt; stroke-dashoffset: 0; stroke-linejoin: miter; stroke-miterlimit: 4; fill: rgb(255,255,255); fill-rule: nonzero; opacity: 1;" vector-effect="non-scaling-stroke"  transform=" translate(-23.73, -24)" d="M 24.82 25.61 C 24.59 25.61 24.43 25.61 24.2 25.63 L 24.18 25.58 C 24.259999999999998 25.18 24.35 24.909999999999997 24.43 24.509999999999998 L 24.58 23.81 C 24.599999999999998 23.72 24.65 23.529999999999998 24.65 23.369999999999997 C 24.65 22.919999999999998 24.25 22.9 24.13 22.9 C 23.759999999999998 22.9 23.47 23.119999999999997 23.33 23.22 C 23.159999999999997 24 22.979999999999997 24.79 22.83 25.57 L 22.799999999999997 25.61 C 22.569999999999997 25.61 22.4 25.61 22.179999999999996 25.63 L 22.149999999999995 25.58 C 22.349999999999994 24.779999999999998 22.729999999999993 23.099999999999998 22.779999999999994 22.549999999999997 L 22.829999999999995 22.509999999999998 L 23.469999999999995 22.409999999999997 L 23.499999999999996 22.439999999999998 L 23.409999999999997 22.749999999999996 C 23.859999999999996 22.409999999999997 24.289999999999996 22.379999999999995 24.429999999999996 22.379999999999995 C 24.619999999999997 22.379999999999995 25.309999999999995 22.409999999999997 25.309999999999995 23.189999999999994 C 25.309999999999995 23.389999999999993 25.229999999999997 23.789999999999996 25.109999999999996 24.359999999999992 L 25.019999999999996 24.789999999999992 C 24.959999999999997 25.089999999999993 24.909999999999997 25.289999999999992 24.869999999999997 25.569999999999993 z M 24.82 25.61" stroke-linecap="round" />
</g>
		<g transform="matrix(3.78 0 0 3.78 -13.4 28.17)"  >
<path style="stroke: none; stroke-width: 1; stroke-dasharray: none; stroke-linecap: butt; stroke-dashoffset: 0; stroke-linejoin: miter; stroke-miterlimit: 4; fill: rgb(255,255,255); fill-rule: nonzero; opacity: 1;" vector-effect="non-scaling-stroke"  transform=" translate(-27.25, -24.79)" d="M 29.05 22.5 C 28.88 23.18 28.73 23.8 28.59 24.49 L 28.419999999999998 25.29 C 28.2 26.29 28.02 27.14 26.7 27.14 C 26.34 27.14 25.8 27.060000000000002 25.45 26.69 L 25.45 26.64 C 25.55 26.5 25.599999999999998 26.400000000000002 25.689999999999998 26.25 L 25.74 26.25 C 25.91 26.46 26.209999999999997 26.68 26.66 26.68 C 27.56 26.68 27.63 25.85 27.7 25.64 L 27.759999999999998 25.39 C 27.36 25.67 26.999999999999996 25.68 26.869999999999997 25.68 C 26.159999999999997 25.68 25.779999999999998 25.13 25.779999999999998 24.5 C 25.779999999999998 24.35 25.799999999999997 23.83 26.13 23.34 C 26.689999999999998 22.46 27.61 22.46 28.299999999999997 22.46 L 29.029999999999998 22.44 z M 28.310000000000002 22.93 L 28.070000000000004 22.93 C 27.530000000000005 22.93 26.940000000000005 23.02 26.600000000000005 23.73 C 26.460000000000004 24.05 26.440000000000005 24.29 26.440000000000005 24.43 C 26.440000000000005 25.06 26.840000000000003 25.2 27.140000000000004 25.2 C 27.480000000000004 25.2 27.730000000000004 25.029999999999998 27.860000000000003 24.9 z M 28.310000000000002 22.93" stroke-linecap="round" />
</g>
		<g transform="matrix(3.78 0 0 3.78 8.22 23.17)"  >
<path style="stroke: none; stroke-width: 1; stroke-dasharray: none; stroke-linecap: butt; stroke-dashoffset: 0; stroke-linejoin: miter; stroke-miterlimit: 4; fill: rgb(255,255,255); fill-rule: nonzero; opacity: 1;" vector-effect="non-scaling-stroke"  transform=" translate(-32.97, -23.47)" d="M 32.4 25.61 L 31.759999999999998 25.62 L 31.729999999999997 25.580000000000002 C 31.879999999999995 24.990000000000002 32.559999999999995 22.180000000000003 32.61 21.830000000000002 C 31.95 21.830000000000002 31.66 21.85 31.37 21.860000000000003 L 31.34 21.820000000000004 C 31.39 21.640000000000004 31.44 21.520000000000003 31.47 21.350000000000005 L 31.52 21.320000000000004 C 32.53652985759703 21.34784536604571 33.55367458775161 21.344510465291116 34.56999999999999 21.310000000000013 L 34.6 21.35 L 34.46 21.82 L 34.42 21.85 C 34.18 21.830000000000002 33.82 21.830000000000002 33.29 21.830000000000002 C 33.17 22.23 33.12 22.540000000000003 33.019999999999996 22.970000000000002 L 32.72 24.35 C 32.62 24.76 32.53 25.150000000000002 32.46 25.57 z M 32.4 25.61" stroke-linecap="round" />
</g>
		<g transform="matrix(3.78 0 0 3.78 16.5 25.32)"  >
<path style="stroke: none; stroke-width: 1; stroke-dasharray: none; stroke-linecap: butt; stroke-dashoffset: 0; stroke-linejoin: miter; stroke-miterlimit: 4; fill: rgb(255,255,255); fill-rule: nonzero; opacity: 1;" vector-effect="non-scaling-stroke"  transform=" translate(-35.16, -24.04)" d="M 36.09 25.44 C 35.89 25.560000000000002 35.57 25.68 35.1 25.68 C 34.06 25.68 33.7 25.06 33.7 24.37 C 33.7 23.310000000000002 34.34 22.39 35.400000000000006 22.39 C 36.10000000000001 22.39 36.620000000000005 22.72 36.620000000000005 23.52 C 36.620000000000005 23.77 36.56 23.98 36.540000000000006 24.08 L 36.50000000000001 24.099999999999998 L 35.080000000000005 24.099999999999998 L 34.34 24.11 L 34.32 24.37 C 34.32 25.17 35.01 25.19 35.22 25.19 C 35.73 25.19 35.99 24.990000000000002 36.22 24.82 L 36.28 24.85 C 36.21 25.05 36.17 25.19 36.120000000000005 25.400000000000002 z M 36.010000000000005 23.67 L 36.040000000000006 23.41 C 36.03000000000001 22.86 35.57000000000001 22.81 35.42000000000001 22.81 C 34.720000000000006 22.81 34.48000000000001 23.459999999999997 34.42000000000001 23.68 L 36.02000000000001 23.68" stroke-linecap="round" />
</g>
		<g transform="matrix(3.78 0 0 3.78 28.38 25.32)"  >
<path style="stroke: none; stroke-width: 1; stroke-dasharray: none; stroke-linecap: butt; stroke-dashoffset: 0; stroke-linejoin: miter; stroke-miterlimit: 4; fill: rgb(255,255,255); fill-rule: nonzero; opacity: 1;" vector-effect="non-scaling-stroke"  transform=" translate(-38.3, -24.04)" d="M 39.04 25.51 C 38.839999999999996 25.630000000000003 38.47 25.680000000000003 38.26 25.680000000000003 C 37.48 25.680000000000003 36.94 25.090000000000003 36.94 24.320000000000004 C 36.94 23.820000000000004 37.16 23.040000000000003 37.82 22.630000000000003 C 38.18 22.42 38.54 22.390000000000004 38.71 22.390000000000004 C 39.13 22.390000000000004 39.47 22.490000000000006 39.65 22.630000000000003 L 39.67 22.67 C 39.6 22.85 39.57 22.970000000000002 39.52 23.150000000000002 L 39.46 23.17 C 39.36 23.01 39.09 22.87 38.77 22.87 C 38.010000000000005 22.87 37.6 23.67 37.6 24.27 C 37.6 24.98 38.15 25.19 38.440000000000005 25.19 C 38.540000000000006 25.19 38.86000000000001 25.18 39.18000000000001 24.900000000000002 L 39.230000000000004 24.92 C 39.160000000000004 25.12 39.13 25.26 39.080000000000005 25.470000000000002 z M 39.04 25.51" stroke-linecap="round" />
</g>
		<g transform="matrix(3.78 0 0 3.78 39 22.18)"  >
<path style="stroke: none; stroke-width: 1; stroke-dasharray: none; stroke-linecap: butt; stroke-dashoffset: 0; stroke-linejoin: miter; stroke-miterlimit: 4; fill: rgb(255,255,255); fill-rule: nonzero; opacity: 1;" vector-effect="non-scaling-stroke"  transform=" translate(-41.12, -23.21)" d="M 42.2 25.61 L 41.59 25.62 L 41.56 25.580000000000002 L 41.730000000000004 24.880000000000003 L 41.900000000000006 24.12 C 41.940000000000005 23.96 42.040000000000006 23.490000000000002 42.040000000000006 23.32 C 42.040000000000006 22.9 41.67000000000001 22.89 41.56000000000001 22.89 C 41.18000000000001 22.89 40.82000000000001 23.14 40.720000000000006 23.23 L 40.480000000000004 24.310000000000002 C 40.38 24.730000000000004 40.31 25.14 40.220000000000006 25.570000000000004 L 40.18000000000001 25.600000000000005 L 39.57000000000001 25.620000000000005 L 39.53000000000001 25.580000000000005 C 39.62000000000001 25.190000000000005 40.45000000000001 21.840000000000003 40.540000000000006 20.930000000000007 L 40.59 20.900000000000006 L 41.25 20.790000000000006 L 41.28 20.830000000000005 C 41.11 21.470000000000006 40.980000000000004 22.100000000000005 40.82 22.750000000000007 C 41.01 22.620000000000008 41.37 22.390000000000008 41.87 22.390000000000008 C 42.029999999999994 22.390000000000008 42.699999999999996 22.430000000000007 42.699999999999996 23.15000000000001 C 42.699999999999996 23.42000000000001 42.65 23.70000000000001 42.599999999999994 23.92000000000001 L 42.42999999999999 24.65000000000001 L 42.24999999999999 25.57000000000001 z M 42.2 25.61" stroke-linecap="round" />
</g>
		<g transform="matrix(3.78 0 0 3.78 52.24 25.2)"  >
<path style="stroke: none; stroke-width: 1; stroke-dasharray: none; stroke-linecap: butt; stroke-dashoffset: 0; stroke-linejoin: miter; stroke-miterlimit: 4; fill: rgb(255,255,255); fill-rule: nonzero; opacity: 1;" vector-effect="non-scaling-stroke"  transform=" translate(-44.62, -24)" d="M 45.71 25.61 C 45.480000000000004 25.61 45.32 25.61 45.1 25.63 L 45.07 25.58 C 45.15 25.18 45.24 24.909999999999997 45.32 24.509999999999998 L 45.47 23.81 C 45.49 23.72 45.54 23.529999999999998 45.54 23.369999999999997 C 45.54 22.919999999999998 45.14 22.9 45.019999999999996 22.9 C 44.65 22.9 44.36 23.119999999999997 44.22 23.22 C 44.05 24 43.879999999999995 24.79 43.73 25.57 L 43.69 25.61 C 43.46 25.61 43.3 25.61 43.07 25.63 L 43.04 25.58 C 43.24 24.779999999999998 43.62 23.099999999999998 43.67 22.549999999999997 L 43.72 22.509999999999998 L 44.36 22.409999999999997 L 44.39 22.439999999999998 L 44.31 22.749999999999996 C 44.75 22.409999999999997 45.190000000000005 22.379999999999995 45.32 22.379999999999995 C 45.51 22.379999999999995 46.2 22.409999999999997 46.2 23.189999999999994 C 46.2 23.389999999999993 46.13 23.789999999999996 46 24.359999999999992 L 45.91 24.789999999999992 C 45.849999999999994 25.089999999999993 45.8 25.289999999999992 45.76 25.569999999999993 z M 45.71 25.61" stroke-linecap="round" />
</g>
		<g transform="matrix(3.78 0 0 3.78 65.68 25.32)"  >
<path style="stroke: none; stroke-width: 1; stroke-dasharray: none; stroke-linecap: butt; stroke-dashoffset: 0; stroke-linejoin: miter; stroke-miterlimit: 4; fill: rgb(255,255,255); fill-rule: nonzero; opacity: 1;" vector-effect="non-scaling-stroke"  transform=" translate(-48.17, -24.04)" d="M 48.37 22.39 C 49.12 22.39 49.669999999999995 22.77 49.669999999999995 23.580000000000002 C 49.669999999999995 24.220000000000002 49.37 25.680000000000003 47.94 25.680000000000003 C 47.559999999999995 25.680000000000003 46.68 25.590000000000003 46.68 24.470000000000002 C 46.68 23.490000000000002 47.22 22.39 48.37 22.39 M 47.96 25.23 C 48.87 25.23 49.02 23.75 49.02 23.55 C 49.02 22.96 48.67 22.830000000000002 48.39 22.830000000000002 C 47.56 22.830000000000002 47.33 24.080000000000002 47.33 24.51 C 47.33 24.900000000000002 47.51 25.23 47.96 25.23" stroke-linecap="round" />
</g>
		<g transform="matrix(3.78 0 0 3.78 75.62 22.19)"  >
<path style="stroke: none; stroke-width: 1; stroke-dasharray: none; stroke-linecap: butt; stroke-dashoffset: 0; stroke-linejoin: miter; stroke-miterlimit: 4; fill: rgb(255,255,255); fill-rule: nonzero; opacity: 1;" vector-effect="non-scaling-stroke"  transform=" translate(-50.81, -23.2)" d="M 50.6 25.61 C 50.38 25.61 50.21 25.61 49.980000000000004 25.63 L 49.96 25.59 C 50.050000000000004 25.1 50.7 22.44 50.910000000000004 20.93 L 50.95 20.89 C 51.2 20.86 51.370000000000005 20.830000000000002 51.620000000000005 20.78 L 51.650000000000006 20.810000000000002 C 51.35000000000001 22.12 50.730000000000004 25.01 50.650000000000006 25.57 z M 50.6 25.61" stroke-linecap="round" />
</g>
		<g transform="matrix(3.78 0 0 3.78 84.06 25.32)"  >
<path style="stroke: none; stroke-width: 1; stroke-dasharray: none; stroke-linecap: butt; stroke-dashoffset: 0; stroke-linejoin: miter; stroke-miterlimit: 4; fill: rgb(255,255,255); fill-rule: nonzero; opacity: 1;" vector-effect="non-scaling-stroke"  transform=" translate(-53.04, -24.04)" d="M 53.23 22.39 C 53.98 22.39 54.529999999999994 22.77 54.529999999999994 23.580000000000002 C 54.529999999999994 24.220000000000002 54.23 25.680000000000003 52.809999999999995 25.680000000000003 C 52.42999999999999 25.680000000000003 51.55 25.590000000000003 51.55 24.470000000000002 C 51.55 23.490000000000002 52.08 22.39 53.23 22.39 M 52.82 25.23 C 53.74 25.23 53.89 23.75 53.89 23.55 C 53.89 22.96 53.53 22.830000000000002 53.26 22.830000000000002 C 52.419999999999995 22.830000000000002 52.19 24.080000000000002 52.19 24.51 C 52.19 24.900000000000002 52.37 25.23 52.82 25.23" stroke-linecap="round" />
</g>
		<g transform="matrix(3.78 0 0 3.78 96.71 28.17)"  >
<path style="stroke: none; stroke-width: 1; stroke-dasharray: none; stroke-linecap: butt; stroke-dashoffset: 0; stroke-linejoin: miter; stroke-miterlimit: 4; fill: rgb(255,255,255); fill-rule: nonzero; opacity: 1;" vector-effect="non-scaling-stroke"  transform=" translate(-56.38, -24.79)" d="M 58.19 22.5 C 58.019999999999996 23.18 57.86 23.8 57.72 24.49 L 57.55 25.29 C 57.339999999999996 26.29 57.16 27.14 55.83 27.14 C 55.47 27.14 54.93 27.060000000000002 54.58 26.69 L 54.58 26.64 L 54.83 26.25 L 54.879999999999995 26.25 C 55.03999999999999 26.46 55.339999999999996 26.68 55.78999999999999 26.68 C 56.68999999999999 26.68 56.76999999999999 25.85 56.83999999999999 25.64 L 56.889999999999986 25.39 C 56.48999999999999 25.67 56.139999999999986 25.68 55.999999999999986 25.68 C 55.289999999999985 25.68 54.90999999999998 25.13 54.90999999999998 24.5 C 54.90999999999998 24.35 54.93999999999998 23.83 55.259999999999984 23.34 C 55.829999999999984 22.46 56.73999999999998 22.46 57.429999999999986 22.46 L 58.15999999999998 22.44 z M 57.44 22.93 L 57.199999999999996 22.93 C 56.66 22.93 56.06999999999999 23.02 55.739999999999995 23.73 C 55.589999999999996 24.05 55.56999999999999 24.29 55.56999999999999 24.43 C 55.56999999999999 25.06 55.96999999999999 25.2 56.279999999999994 25.2 C 56.62 25.2 56.85999999999999 25.029999999999998 56.989999999999995 24.9 z M 57.44 22.93" stroke-linecap="round" />
</g>
		<g transform="matrix(3.78 0 0 3.78 109.58 28.06)"  >
<path style="stroke: none; stroke-width: 1; stroke-dasharray: none; stroke-linecap: butt; stroke-dashoffset: 0; stroke-linejoin: miter; stroke-miterlimit: 4; fill: rgb(255,255,255); fill-rule: nonzero; opacity: 1;" vector-effect="non-scaling-stroke"  transform=" translate(-59.79, -24.76)" d="M 61.47 22.5 C 60.54155583032531 23.99185373161723 59.65455004380378 25.509100471719815 58.809999999999974 27.050000000000026 L 58.760000000000005 27.080000000000002 L 58.49 27.080000000000002 L 58.13 27.090000000000003 L 58.11 27.050000000000004 C 58.29 26.780000000000005 58.89 25.850000000000005 59.04 25.580000000000005 C 58.8 24.080000000000005 58.58 22.580000000000005 58.55 22.500000000000007 L 58.589999999999996 22.460000000000008 C 58.81999999999999 22.460000000000008 58.989999999999995 22.450000000000006 59.22 22.430000000000007 L 59.269999999999996 22.460000000000008 C 59.3 22.800000000000008 59.31999999999999 23.03000000000001 59.37 23.360000000000007 L 59.54 24.790000000000006 L 60.13 23.750000000000007 C 60.36 23.35000000000001 60.59 22.930000000000007 60.81 22.490000000000006 L 60.85 22.460000000000004 L 61.050000000000004 22.460000000000004 L 61.45 22.450000000000003 z M 61.47 22.5" stroke-linecap="round" />
</g>
		<g transform="matrix(3.78 0 0 3.78 -26.89 50.45)"  >
<path style="stroke: none; stroke-width: 1; stroke-dasharray: none; stroke-linecap: butt; stroke-dashoffset: 0; stroke-linejoin: miter; stroke-miterlimit: 4; fill: rgb(255,255,255); fill-rule: nonzero; opacity: 1;" vector-effect="non-scaling-stroke"  transform=" translate(-23.68, -30.69)" d="M 23.15 33.07 C 22.919999999999998 33.07 22.759999999999998 33.07 22.54 33.09 L 22.509999999999998 33.050000000000004 C 22.72 32.07000000000001 22.61 32.650000000000006 23.099999999999998 30.380000000000003 L 22.639999999999997 30.380000000000003 L 22.599999999999998 30.35 L 22.709999999999997 29.950000000000003 L 22.759999999999998 29.900000000000002 C 22.902979762934617 29.91283643276909 23.04644601778162 29.919509281831743 23.189999999999998 29.92 L 23.279999999999998 29.48 C 23.409999999999997 28.830000000000002 23.529999999999998 28.28 24.38 28.28 C 24.59 28.28 24.73 28.32 24.82 28.34 L 24.85 28.39 L 24.740000000000002 28.8 L 24.69 28.84 C 24.650000000000002 28.84 24.57 28.8 24.46 28.8 C 24.07 28.8 24.01 29.05 23.900000000000002 29.53 L 23.820000000000004 29.92 L 24.400000000000002 29.92 L 24.430000000000003 29.96 C 24.380000000000003 30.080000000000002 24.350000000000005 30.2 24.310000000000002 30.35 L 24.26 30.39 L 23.73 30.38 C 23.53 31.34 23.330000000000002 32.08 23.2 33.03 z M 23.15 33.07" stroke-linecap="round" />
</g>
		<g transform="matrix(3.78 0 0 3.78 -18.93 53.51)"  >
<path style="stroke: none; stroke-width: 1; stroke-dasharray: none; stroke-linecap: butt; stroke-dashoffset: 0; stroke-linejoin: miter; stroke-miterlimit: 4; fill: rgb(255,255,255); fill-rule: nonzero; opacity: 1;" vector-effect="non-scaling-stroke"  transform=" translate(-25.79, -31.5)" d="M 25.98 29.85 C 26.73 29.85 27.28 30.23 27.28 31.040000000000003 C 27.28 31.67 26.98 33.14 25.55 33.14 C 25.17 33.14 24.29 33.04 24.29 31.93 C 24.29 30.94 24.83 29.85 25.98 29.85 M 25.57 32.69 C 26.48 32.69 26.63 31.209999999999997 26.63 30.999999999999996 C 26.63 30.419999999999998 26.279999999999998 30.289999999999996 26 30.289999999999996 C 25.17 30.289999999999996 24.93 31.529999999999994 24.93 31.969999999999995 C 24.93 32.35999999999999 25.12 32.69 25.57 32.69" stroke-linecap="round" />
</g>
		<g transform="matrix(3.78 0 0 3.78 -7.96 53.36)"  >
<path style="stroke: none; stroke-width: 1; stroke-dasharray: none; stroke-linecap: butt; stroke-dashoffset: 0; stroke-linejoin: miter; stroke-miterlimit: 4; fill: rgb(255,255,255); fill-rule: nonzero; opacity: 1;" vector-effect="non-scaling-stroke"  transform=" translate(-28.69, -31.45)" d="M 28.18 33.07 L 27.55 33.07 L 27.52 33.04 C 27.77 32.089999999999996 28.12 30.53 28.18 30.009999999999998 L 28.22 29.97 L 28.88 29.869999999999997 L 28.91 29.909999999999997 L 28.77 30.439999999999998 C 28.87 30.29 29.13 29.839999999999996 29.57 29.839999999999996 C 29.7 29.839999999999996 29.78 29.869999999999997 29.84 29.909999999999997 L 29.86 29.959999999999997 C 29.759999999999998 30.179999999999996 29.71 30.33 29.62 30.56 L 29.560000000000002 30.57 C 29.486205155960015 30.51961858701474 29.399334503193813 30.491819978129556 29.310000000000002 30.490000000000002 C 29.14 30.490000000000002 28.770000000000003 30.57 28.580000000000002 31.360000000000003 C 28.520000000000003 31.590000000000003 28.28 32.63 28.23 33.02 z M 28.18 33.07" stroke-linecap="round" />
</g>
		<g transform="matrix(3.78 0 0 3.78 10.54 51.34)"  >
<path style="stroke: none; stroke-width: 1; stroke-dasharray: none; stroke-linecap: butt; stroke-dashoffset: 0; stroke-linejoin: miter; stroke-miterlimit: 4; fill: rgb(255,255,255); fill-rule: nonzero; opacity: 1;" vector-effect="non-scaling-stroke"  transform=" translate(-33.59, -30.92)" d="M 34.77 33.06 L 34.11000000000001 33.07 L 34.09 33.04 L 34.56 31 L 33.3 31 C 33.04 31 32.849999999999994 31 32.58 31.02 C 32.41 31.68 32.28 32.36 32.15 33.03 L 32.1 33.07 L 31.450000000000003 33.07 L 31.42 33.04 C 31.490000000000002 32.76 32.24 29.57 32.370000000000005 28.82 L 32.410000000000004 28.78 L 33.06 28.77 L 33.09 28.8 C 32.92 29.53 32.93000000000001 29.42 32.690000000000005 30.5 L 33.11000000000001 30.5 C 33.650000000000006 30.5 34.260000000000005 30.5 34.67000000000001 30.48 L 35.03000000000001 28.82 L 35.07000000000001 28.78 L 35.720000000000006 28.77 L 35.75000000000001 28.8 C 35.370000000000005 30.44 34.95000000000001 32.27 34.81000000000001 33.02 z M 34.77 33.06" stroke-linecap="round" />
</g>
		<g transform="matrix(3.78 0 0 3.78 25.09 53.58)"  >
<path style="stroke: none; stroke-width: 1; stroke-dasharray: none; stroke-linecap: butt; stroke-dashoffset: 0; stroke-linejoin: miter; stroke-miterlimit: 4; fill: rgb(255,255,255); fill-rule: nonzero; opacity: 1;" vector-effect="non-scaling-stroke"  transform=" translate(-37.43, -31.52)" d="M 38.3 33.06 L 37.699999999999996 33.080000000000005 L 37.669999999999995 33.040000000000006 L 37.739999999999995 32.75000000000001 C 37.42999999999999 33.010000000000005 37.08 33.13000000000001 36.74999999999999 33.13000000000001 C 36.00999999999999 33.13000000000001 35.849999999999994 32.63000000000001 35.849999999999994 32.30000000000001 C 35.849999999999994 32.08000000000001 35.89999999999999 31.850000000000012 36.00999999999999 31.37000000000001 L 36.13999999999999 30.80000000000001 L 36.309999999999995 29.970000000000013 L 36.349999999999994 29.930000000000014 C 36.57999999999999 29.930000000000014 36.73 29.910000000000014 36.959999999999994 29.900000000000013 L 36.989999999999995 29.940000000000012 C 36.769999999999996 30.860000000000014 36.519999999999996 31.82000000000001 36.519999999999996 32.10000000000001 C 36.519999999999996 32.27000000000001 36.56999999999999 32.62000000000001 37.04 32.62000000000001 C 37.31 32.62000000000001 37.589999999999996 32.500000000000014 37.839999999999996 32.27000000000001 C 38.16 30.85000000000001 38.3 30.17000000000001 38.33 29.97000000000001 L 38.379999999999995 29.93000000000001 C 38.599999999999994 29.93000000000001 38.76 29.91000000000001 38.989999999999995 29.90000000000001 L 39.019999999999996 29.94000000000001 C 38.81999999999999 30.65000000000001 38.4 32.61000000000001 38.339999999999996 33.02000000000001 z M 38.3 33.06" stroke-linecap="round" />
</g>
		<g transform="matrix(3.78 0 0 3.78 40.97 53.39)"  >
<path style="stroke: none; stroke-width: 1; stroke-dasharray: none; stroke-linecap: butt; stroke-dashoffset: 0; stroke-linejoin: miter; stroke-miterlimit: 4; fill: rgb(255,255,255); fill-rule: nonzero; opacity: 1;" vector-effect="non-scaling-stroke"  transform=" translate(-41.63, -31.46)" d="M 43.6 33.07 L 43 33.07 L 42.96 33.04 C 43.06 32.68 43.14 32.31 43.22 31.96 L 43.33 31.490000000000002 C 43.42 31.130000000000003 43.449999999999996 30.89 43.449999999999996 30.78 C 43.449999999999996 30.380000000000003 43.099999999999994 30.36 42.99999999999999 30.36 C 42.61999999999999 30.36 42.31999999999999 30.58 42.18999999999999 30.689999999999998 C 42.18999999999999 30.819999999999997 42.14999999999999 31.11 42.05999999999999 31.49 L 41.91999999999999 32.129999999999995 C 41.84999999999999 32.42999999999999 41.789999999999985 32.72 41.73999999999999 33.029999999999994 L 41.69999999999999 33.06999999999999 L 41.08999999999999 33.06999999999999 L 41.05999999999999 33.029999999999994 C 41.15999999999999 32.66 41.52999999999999 31.169999999999995 41.52999999999999 30.789999999999992 C 41.52999999999999 30.389999999999993 41.18999999999998 30.359999999999992 41.069999999999986 30.359999999999992 C 40.749999999999986 30.359999999999992 40.44999999999999 30.589999999999993 40.33999999999999 30.679999999999993 L 40.139999999999986 31.57999999999999 C 40.01999999999999 32.11999999999999 39.93999999999998 32.48999999999999 39.83999999999999 33.029999999999994 L 39.79999999999999 33.059999999999995 C 39.56999999999999 33.059999999999995 39.41999999999999 33.059999999999995 39.19999999999999 33.08 L 39.15999999999999 33.04 C 39.389999999999986 32.14 39.73999999999999 30.509999999999998 39.79999999999999 30 L 39.83999999999999 29.97 L 40.47999999999999 29.869999999999997 L 40.51999999999999 29.909999999999997 L 40.43999999999999 30.209999999999997 C 40.73715953776225 29.978002962779108 41.10300589380723 29.85136383953277 41.47999999999999 29.849999999999998 C 41.61999999999999 29.849999999999998 41.97999999999999 29.889999999999997 42.139999999999986 30.29 C 42.639999999999986 29.89 43.11999999999998 29.849999999999998 43.27999999999999 29.849999999999998 C 43.72999999999999 29.849999999999998 44.109999999999985 30.089999999999996 44.109999999999985 30.589999999999996 C 44.109999999999985 30.789999999999996 44.05999999999999 31.019999999999996 44.009999999999984 31.259999999999998 L 43.90999999999998 31.72 C 43.789999999999985 32.199999999999996 43.73999999999998 32.54 43.63999999999998 33.03 z M 43.6 33.07" stroke-linecap="round" />
</g>
		<g transform="matrix(3.78 0 0 3.78 58.1 53.53)"  >
<path style="stroke: none; stroke-width: 1; stroke-dasharray: none; stroke-linecap: butt; stroke-dashoffset: 0; stroke-linejoin: miter; stroke-miterlimit: 4; fill: rgb(255,255,255); fill-rule: nonzero; opacity: 1;" vector-effect="non-scaling-stroke"  transform=" translate(-46.17, -31.5)" d="M 47.1 33.07 L 46.54 33.07 L 46.51 33.04 L 46.55 32.8 C 46.26 33.029999999999994 45.959999999999994 33.099999999999994 45.66 33.099999999999994 C 44.949999999999996 33.099999999999994 44.54 32.56999999999999 44.54 31.919999999999995 C 44.54 31.469999999999995 44.74 31.049999999999994 44.83 30.899999999999995 C 45.33 30.009999999999994 46.23 29.899999999999995 46.86 29.899999999999995 L 47.76 29.919999999999995 L 47.8 29.959999999999994 C 47.3 32.099999999999994 47.23 32.449999999999996 47.15 33.029999999999994 z M 45.93 32.63 C 46.13 32.63 46.43 32.54 46.63 32.330000000000005 C 46.79 31.710000000000004 46.910000000000004 31.070000000000004 47.080000000000005 30.370000000000005 L 46.81 30.370000000000005 C 46.230000000000004 30.370000000000005 45.64 30.540000000000006 45.34 31.270000000000003 C 45.31 31.35 45.21 31.590000000000003 45.21 31.870000000000005 C 45.21 32.31 45.46 32.63 45.93 32.63" stroke-linecap="round" />
</g>
		<g transform="matrix(3.78 0 0 3.78 70.76 53.38)"  >
<path style="stroke: none; stroke-width: 1; stroke-dasharray: none; stroke-linecap: butt; stroke-dashoffset: 0; stroke-linejoin: miter; stroke-miterlimit: 4; fill: rgb(255,255,255); fill-rule: nonzero; opacity: 1;" vector-effect="non-scaling-stroke"  transform=" translate(-49.52, -31.46)" d="M 50.61 33.07 L 49.99 33.08 L 49.97 33.04 C 50.05 32.64 50.14 32.36 50.22 31.96 L 50.37 31.27 C 50.39 31.18 50.43 30.99 50.43 30.82 C 50.43 30.37 50.04 30.36 49.92 30.36 C 49.550000000000004 30.36 49.260000000000005 30.57 49.120000000000005 30.68 C 48.95 31.46 48.77 32.24 48.620000000000005 33.03 L 48.580000000000005 33.07 L 47.970000000000006 33.08 L 47.940000000000005 33.04 C 48.14000000000001 32.24 48.52 30.56 48.57000000000001 30.009999999999998 L 48.620000000000005 29.97 L 49.260000000000005 29.86 L 49.290000000000006 29.9 L 49.2 30.209999999999997 C 49.650000000000006 29.869999999999997 50.080000000000005 29.839999999999996 50.220000000000006 29.839999999999996 C 50.400000000000006 29.839999999999996 51.10000000000001 29.869999999999997 51.10000000000001 30.639999999999997 C 51.10000000000001 30.839999999999996 51.02000000000001 31.249999999999996 50.900000000000006 31.819999999999997 L 50.81 32.25 C 50.75 32.54 50.7 32.74 50.660000000000004 33.03 z M 50.61 33.07" stroke-linecap="round" />
</g>
		<g transform="matrix(3.78 0 0 3.78 81.21 50.7)"  >
<path style="stroke: none; stroke-width: 1; stroke-dasharray: none; stroke-linecap: butt; stroke-dashoffset: 0; stroke-linejoin: miter; stroke-miterlimit: 4; fill: rgb(255,255,255); fill-rule: nonzero; opacity: 1;" vector-effect="non-scaling-stroke"  transform=" translate(-52.28, -30.75)" d="M 52.1 33.06 C 51.86 33.06 51.690000000000005 33.06 51.45 33.080000000000005 L 51.42 33.040000000000006 C 51.620000000000005 32.34 52.050000000000004 30.340000000000007 52.08 30.010000000000005 L 52.12 29.970000000000006 L 52.779999999999994 29.870000000000005 L 52.809999999999995 29.910000000000004 C 52.779999999999994 29.910000000000004 52.279999999999994 32.21 52.13999999999999 33.03 z M 52.96 29.060000000000002 L 52.33 29.150000000000002 L 52.29 29.1 L 52.42 28.540000000000003 L 52.47 28.500000000000004 L 53.1 28.420000000000005 L 53.15 28.460000000000004 L 53.01 29.010000000000005 z M 52.96 29.060000000000002" stroke-linecap="round" />
</g>
		<g transform="matrix(3.78 0 0 3.78 87.79 51.79)"  >
<path style="stroke: none; stroke-width: 1; stroke-dasharray: none; stroke-linecap: butt; stroke-dashoffset: 0; stroke-linejoin: miter; stroke-miterlimit: 4; fill: rgb(255,255,255); fill-rule: nonzero; opacity: 1;" vector-effect="non-scaling-stroke"  transform=" translate(-54.02, -31.04)" d="M 54.25 33.05 C 54.05 33.099999999999994 53.89 33.11 53.81 33.11 C 53.24 33.11 53.09 32.81 53.09 32.51 C 53.09 32.28 53.220000000000006 31.74 53.39 31.009999999999998 L 53.55 30.38 L 53.11 30.38 L 53.08 30.34 L 53.18 29.94 L 53.23 29.91 L 53.65 29.91 C 53.72 29.64 53.75 29.44 53.809999999999995 29.16 L 53.85999999999999 29.12 L 54.489999999999995 28.970000000000002 L 54.519999999999996 29.000000000000004 L 54.38999999999999 29.450000000000003 L 54.279999999999994 29.92 L 54.93999999999999 29.91 L 54.96999999999999 29.95 L 54.83999999999999 30.349999999999998 L 54.79999999999999 30.389999999999997 L 54.17999999999999 30.379999999999995 L 53.849999999999994 31.749999999999996 C 53.81999999999999 31.869999999999997 53.73 32.25 53.73 32.37 C 53.73 32.57 53.87 32.629999999999995 54.029999999999994 32.629999999999995 C 54.18999999999999 32.629999999999995 54.32999999999999 32.56999999999999 54.38999999999999 32.55 L 54.419999999999995 32.58 L 54.28999999999999 33.01 z M 54.25 33.05" stroke-linecap="round" />
</g>
		<g transform="matrix(3.78 0 0 3.78 96.27 56.23)"  >
<path style="stroke: none; stroke-width: 1; stroke-dasharray: none; stroke-linecap: butt; stroke-dashoffset: 0; stroke-linejoin: miter; stroke-miterlimit: 4; fill: rgb(255,255,255); fill-rule: nonzero; opacity: 1;" vector-effect="non-scaling-stroke"  transform=" translate(-56.27, -32.22)" d="M 57.95 29.96 C 57.02224863722178 31.44888410429171 56.13525259136245 32.96277961113428 55.28999999999999 34.499999999999986 L 55.24000000000001 34.54 L 54.61000000000001 34.54 L 54.59 34.5 C 54.77 34.24 55.370000000000005 33.3 55.510000000000005 33.04 C 55.28000000000001 31.54 55.06 30.04 55.03000000000001 29.96 L 55.07000000000001 29.92 C 55.300000000000004 29.92 55.470000000000006 29.91 55.70000000000001 29.89 L 55.75000000000001 29.92 L 55.84000000000001 30.82 L 56.02000000000001 32.25 L 56.60000000000001 31.2 C 56.830000000000005 30.8 57.07000000000001 30.39 57.28000000000001 29.95 L 57.330000000000005 29.91 L 57.92 29.91 z M 57.95 29.96" stroke-linecap="round" />
</g>
		<g transform="matrix(3.78 0 0 3.78 -31.48 -30.48)"  >
<path style="stroke: none; stroke-width: 1; stroke-dasharray: none; stroke-linecap: butt; stroke-dashoffset: 0; stroke-linejoin: miter; stroke-miterlimit: 4; fill: rgb(255,255,255); fill-rule: nonzero; opacity: 1;" vector-effect="non-scaling-stroke"  transform=" translate(-22.46, -9.27)" d="M 20.59 2.5 L 24.34 2.5 L 24.34 16.04 L 20.59 16.04 z M 20.59 2.5" stroke-linecap="round" />
</g>
		<g transform="matrix(3.78 0 0 3.78 2.53 -30.48)"  >
<path style="stroke: none; stroke-width: 1; stroke-dasharray: none; stroke-linecap: butt; stroke-dashoffset: 0; stroke-linejoin: miter; stroke-miterlimit: 4; fill: rgb(255,255,255); fill-rule: nonzero; opacity: 1;" vector-effect="non-scaling-stroke"  transform=" translate(-31.47, -9.27)" d="M 26.3 16.04 L 26.3 2.5 L 36.63 2.5 L 36.63 5.12 L 30.060000000000002 5.12 L 30.060000000000002 7.92 L 36.1 7.92 L 36.1 10.55 L 30.060000000000002 10.55 L 30.060000000000002 13.420000000000002 L 36.63 13.420000000000002 L 36.63 16.040000000000003 z M 26.3 16.04" stroke-linecap="round" />
</g>
		<g transform="matrix(3.78 0 0 3.78 49.48 -30.48)"  >
<path style="stroke: none; stroke-width: 1; stroke-dasharray: none; stroke-linecap: butt; stroke-dashoffset: 0; stroke-linejoin: miter; stroke-miterlimit: 4; fill: rgb(255,255,255); fill-rule: nonzero; opacity: 1;" vector-effect="non-scaling-stroke"  transform=" translate(-43.88, -9.27)" d="M 38.73 16.04 L 38.73 2.5 L 49.04 2.5 L 49.04 5.12 L 42.48 5.12 L 42.48 7.92 L 48.519999999999996 7.92 L 48.519999999999996 10.55 L 42.48 10.55 L 42.48 13.420000000000002 L 49.04 13.420000000000002 L 49.04 16.040000000000003 z M 38.73 16.04" stroke-linecap="round" />
</g>
		<g transform="matrix(3.78 0 0 3.78 96.41 -30.48)"  >
<path style="stroke: none; stroke-width: 1; stroke-dasharray: none; stroke-linecap: butt; stroke-dashoffset: 0; stroke-linejoin: miter; stroke-miterlimit: 4; fill: rgb(255,255,255); fill-rule: nonzero; opacity: 1;" vector-effect="non-scaling-stroke"  transform=" translate(-56.3, -9.27)" d="M 51.15 16.04 L 51.15 2.5 L 61.46 2.5 L 61.46 5.12 L 54.9 5.12 L 54.9 7.92 L 60.94 7.92 L 60.94 10.55 L 54.9 10.55 L 54.9 13.420000000000002 L 61.46 13.420000000000002 L 61.46 16.040000000000003 z M 51.15 16.04" stroke-linecap="round" />
</g>
		<g transform="matrix(3.78 0 0 3.78 -81.67 -31.25)"  >
<path style="stroke: none; stroke-width: 1; stroke-dasharray: none; stroke-linecap: butt; stroke-dashoffset: 0; stroke-linejoin: miter; stroke-miterlimit: 4; fill: rgb(255,255,255); fill-rule: nonzero; opacity: 1;" vector-effect="non-scaling-stroke"  transform=" translate(-9.18, -9.07)" d="M 8.55 2.65 C 9.15 2.1799999999999997 9.9 2.57 10.4 3 C 10.93 3.4 11.48 3.86 11.96 4.33 L 12.05 4.38 C 13.388688713266092 5.603705439930049 14.595293582647127 6.964487598176445 15.649999999999991 8.439999999999994 C 15.81 8.7 15.950000000000001 8.99 15.860000000000001 9.32 C 15.520000000000001 10.17 14.830000000000002 10.85 14.23 11.59 C 12.957656402230798 13.01687652285749 11.53999031063603 14.307187268162426 10.000000000000004 15.440000000000001 C 9.68 15.66 9.26 15.86 8.89 15.69 C 7.760000000000001 15.09 6.790000000000001 14.12 5.8100000000000005 13.23 C 4.617315699453527 12.150378194338735 3.5505385494158377 10.939351303887143 2.630000000000001 9.62 C 2.5000000000000004 9.440000000000001 2.4600000000000004 9.22 2.4600000000000004 8.97 C 2.5800000000000005 8.520000000000001 2.8800000000000003 8.15 3.1800000000000006 7.7700000000000005 C 4.25725484873106 6.435878296483448 5.448401723240001 5.197888567358977 6.739999999999996 4.069999999999994 L 6.88 3.9600000000000004 C 7.42 3.4800000000000004 7.97 3.0600000000000005 8.54 2.6500000000000004 M 10.29 1.2800000000000002 L 9.63 0.32 C 9.54 0.27 9.44 0.2 9.35 0.16 C 9.15 0.08 8.93 0.18 8.77 0.31 L 7.55 1.9 C 5.585736769949195 4.362599761252725 3.2789975536254365 6.531271374847623 0.700000000000002 8.340000000000005 C 0.49999999999999994 8.5 0.19999999999999996 8.65 0.1399999999999999 8.91 C 0.0699999999999999 9.14 0.1999999999999999 9.34 0.3399999999999999 9.48 C 2.421762394881856 10.912064341707124 4.3340323863182215 12.576074720220186 6.039999999999985 14.439999999999998 C 6.35 14.760000000000002 6.6 15.080000000000002 6.9 15.39 C 7.41 16.060000000000002 8 16.740000000000002 8.47 17.46 C 8.620000000000001 17.62 8.64 17.86 8.870000000000001 17.94 C 9.05 18 9.270000000000001 18.040000000000003 9.440000000000001 17.94 L 9.610000000000001 17.77 C 11.749961193132927 14.758448193275134 14.367811326918355 12.11695296150713 17.360000000000007 9.949999999999992 C 17.66 9.68 18.23 9.59 18.24 9.09 C 18.217757945743486 8.85345100852558 18.088913303842112 8.639937030517588 17.889999999999997 8.51 L 17.839999999999996 8.51 C 16.295686691288353 7.456293434222793 14.852797273300588 6.261139090321093 13.530000000000005 4.940000000000003 L 12.05 3.4 C 11.450000000000001 2.73 10.860000000000001 1.99 10.3 1.2799999999999998 M 8.77 3.02 C 9.379999999999999 2.6 9.93 3.18 10.399999999999999 3.52 C 12.260672182534552 4.968023422511851 13.904067144330444 6.675403024213734 15.279999999999989 8.589999999999991 C 15.449999999999998 8.83 15.519999999999998 9.209999999999999 15.379999999999997 9.49 C 15.029999999999998 10.06 14.579999999999997 10.59 14.139999999999997 11.11 L 14.139999999999997 11.139999999999999 C 13.059820886793233 12.334003992068322 11.8933453881805 13.447002103925168 10.649999999999999 14.469999999999997 C 10.049999999999997 14.839999999999998 9.489999999999997 15.649999999999999 8.709999999999997 15.149999999999999 C 6.885341959323231 13.804264920918989 5.230007411024711 12.242945316540062 3.779999999999994 10.499999999999996 C 3.5399999999999974 10.109999999999998 3.1599999999999975 9.799999999999999 2.9799999999999978 9.369999999999997 C 2.749999999999998 8.789999999999997 3.2799999999999976 8.369999999999997 3.579999999999998 7.919999999999997 C 5.039999999999997 6.109999999999998 6.879999999999997 4.319999999999997 8.769999999999998 3.019999999999997 M 9.159999999999998 4.219999999999997 L 8.989999999999998 4.739999999999997 L 8.159999999999998 7.129999999999997 C 8.359999999999998 7.149999999999997 8.629999999999999 7.129999999999997 8.829999999999998 7.149999999999997 L 8.829999999999998 7.169999999999996 L 8.709999999999999 9.869999999999997 L 8.729999999999999 9.889999999999997 C 8.999999999999998 9.919999999999996 9.329999999999998 9.929999999999996 9.599999999999998 9.889999999999997 L 9.599999999999998 9.839999999999996 L 9.489999999999998 7.229999999999997 L 9.509999999999998 7.139999999999997 L 10.239999999999998 7.129999999999997 C 9.87 6.1599999999999975 9.519999999999998 5.189999999999998 9.179999999999998 4.209999999999997 Z M 6.33 7.93 C 5.86 8.17 5.18 8.53 5.25 9.16 C 5.35 9.51 5.73 9.74 6.03 9.88 C 7.68 10.610000000000001 9.88 10.63 11.629999999999999 10.090000000000002 C 12.049999999999999 9.920000000000002 12.629999999999999 9.690000000000001 12.709999999999999 9.150000000000002 C 12.709999999999999 8.720000000000002 12.249999999999998 8.450000000000003 11.909999999999998 8.280000000000003 L 11.909999999999998 8.260000000000003 C 12.029999999999998 8.210000000000003 12.159999999999998 8.160000000000004 12.279999999999998 8.160000000000004 L 12.279999999999998 8.140000000000004 C 11.699999999999998 8.040000000000004 11.129999999999997 7.890000000000004 10.569999999999997 7.740000000000004 C 10.669999999999996 7.990000000000004 10.749999999999996 8.240000000000004 10.839999999999996 8.510000000000003 C 11.019999999999996 8.450000000000003 11.189999999999996 8.410000000000004 11.369999999999996 8.390000000000004 C 11.669999999999996 8.500000000000004 12.099999999999996 8.670000000000003 12.139999999999995 9.040000000000004 C 12.179999999999994 9.390000000000004 11.789999999999996 9.560000000000004 11.549999999999995 9.700000000000005 C 10.243993620304714 10.162715162182351 8.828369668774513 10.218503298203247 7.489999999999995 9.860000000000005 C 7.1299999999999955 9.740000000000006 6.589999999999995 9.590000000000005 6.549999999999995 9.120000000000005 C 6.809999999999995 8.510000000000005 7.489999999999995 8.380000000000004 8.049999999999995 8.220000000000004 C 7.759999999999995 8.040000000000004 7.469999999999995 7.8700000000000045 7.179999999999995 7.660000000000004 C 6.8799999999999955 7.680000000000003 6.599999999999995 7.810000000000004 6.329999999999996 7.930000000000003 M 8.689999999999996 10.620000000000003 C 8.639999999999995 11.580000000000002 8.629999999999995 12.460000000000003 8.559999999999995 13.420000000000002 C 8.939999999999996 13.450000000000001 9.359999999999996 13.490000000000002 9.759999999999994 13.430000000000001 L 9.649999999999995 10.760000000000002 L 9.629999999999995 10.63 C 9.319999999999995 10.64 9.029999999999996 10.65 8.689999999999996 10.620000000000001" stroke-linecap="round" />
</g>
		<g transform="matrix(3.78 0 0 3.78 -70.2 -2.29)"  >
<path style="stroke: none; stroke-width: 1; stroke-dasharray: none; stroke-linecap: butt; stroke-dashoffset: 0; stroke-linejoin: miter; stroke-miterlimit: 4; fill: rgb(255,255,255); fill-rule: nonzero; opacity: 1;" vector-effect="non-scaling-stroke"  transform=" translate(-12.22, -16.73)" d="M 12.22 16.1 C 11.89 16.1 11.59 16.330000000000002 11.59 16.73 C 11.59 17.13 11.89 17.36 12.22 17.36 C 12.38960833111753 17.36871537890103 12.554965205936657 17.305144071842307 12.675054638889483 17.185054638889483 C 12.795144071842309 17.064965205936655 12.85871537890103 16.89960833111753 12.850000000000001 16.73 C 12.85871537890103 16.56039166888247 12.795144071842309 16.395034794063342 12.675054638889483 16.274945361110518 C 12.554965205936657 16.154855928157694 12.38960833111753 16.09128462109897 12.22 16.1 M 12.22 17.21 C 11.97 17.21 11.770000000000001 17.02 11.770000000000001 16.73 C 11.770000000000001 16.44 11.97 16.25 12.22 16.25 C 12.47 16.25 12.67 16.45 12.67 16.73 C 12.67 17.02 12.47 17.21 12.22 17.21 M 12.5 16.6 C 12.5 16.44 12.4 16.400000000000002 12.23 16.400000000000002 L 11.97 16.400000000000002 L 11.97 17.070000000000004 L 12.120000000000001 17.070000000000004 L 12.120000000000001 16.780000000000005 L 12.190000000000001 16.780000000000005 L 12.340000000000002 17.070000000000004 L 12.510000000000002 17.070000000000004 L 12.340000000000002 16.770000000000003 C 12.440000000000001 16.770000000000003 12.500000000000002 16.720000000000002 12.500000000000002 16.6 M 12.250000000000002 16.67 L 12.120000000000001 16.67 L 12.120000000000001 16.5 L 12.22 16.5 C 12.270000000000001 16.5 12.350000000000001 16.51 12.350000000000001 16.58 C 12.350000000000001 16.659999999999997 12.310000000000002 16.669999999999998 12.250000000000002 16.669999999999998" stroke-linecap="round" />
</g>
</g>
</g>
</svg>